# xmcd CD database file
#
# Track frame offsets:
#	150
#	19440
#	52892
#
# Disc length: 962 seconds
#
# Revision: 0
# Processed by: cddbd v1.5.1PL0 Copyright (c) Steve Scherf et al.
# Submitted via: CDex 1.50beta8
#
DISCID=1e03c003
DTITLE=cornelius - MOON LIGHT STORY
DYEAR=1994
DGENRE=Pop
TTITLE0=MOON LIGHT STORY(SINGLE VERSION)
TTITLE1=INTO SOMETHIN(LIVE)
TTITLE2=MOON LIGHT STORY(INSTRUMENTAL)
EXTD=YEAR: 1994
EXTT0=
EXTT1=
EXTT2=
PLAYORDER=
